<?xml version="1.0" encoding="utf-8"?>
<!-- Generator: Adobe Illustrator 21.1.0, SVG Export Plug-In . SVG Version: 6.00 Build 0)  -->
<svg version="1.1" id="Layer_3" xmlns="http://www.w3.org/2000/svg" xmlns:xlink="http://www.w3.org/1999/xlink" x="0px" y="0px"
	 viewBox="0 0 1000 1000" style="enable-background:new 0 0 1000 1000;" xml:space="preserve">
<style type="text/css">
	.st0{fill:#cf3030;}
</style>
<path class="st0" d="M484,470L342,325v-145l142,145V470z M466,490L321,348H176l145,142H466z M516,470l142-145v-145L516,325V470z
	 M679,490l145-142H679l-145,142H679z M484,531.9L342,677v145l142-145V531.9z M516,677l142,145V677l-142-145V677z M679,512l145,142
	H679L534.3,512.4l-34,34L466,512L321,654H176l145-142h144.9l-10-10l44.3-44.3l44.3,44.3l-10,10H679z M520,502.7l-19.7-19.7
	L482.2,501l19.7,19.7L520,502.7z M564.7,177.9l-65.1-65.1l-64.3,64.3l65.1,65.1L564.7,177.9z M240.7,502.9l-65.1-65.1l-64.3,64.3
	l65.1,65.1L240.7,502.9z M435.3,822.1l65.1,65.1l64.3-64.3l-65.1-65.1L435.3,822.1z M823.6,437.8l-64.3,64.3l65.1,65.1l64.3-64.3
	L823.6,437.8z"/>
</svg>
